<svg viewBox="0 0 512 512" xmlns="http://www.w3.org/2000/svg"><g><path d="M208.505 124.482C251.84 88.052 316 99.894 342.838 149.172c29.524 54.208-4.442 119.604-65.142 127.613-43.749 5.773-77.467-16.407-93.555-54.051-14.115-33.027-5.26-72.439 24.364-98.252m43.683 134.558c2.076.54 4.15 1.114 6.275.527.873-2.016-.144-3.216-1.463-4.413-5.426-4.922-10.817-9.884-16.21-14.844-5.823-5.355-8.834-11.805-8.016-19.995 10.59 2.061 17.965 9.15 26.065 15.334 2.917-8.896-1.469-14.616-7.317-18.573-13.061-8.836-25.803-5.711-37.7 2.953-1.372-1.015-.959-2.275-.875-3.355 1.456-18.806.401-37.642.683-56.46.105-7.038 4.297-12.564 11.5-14.772 1.593 1.658.97 3.74.98 5.669.072 14.663.192 29.327.1 43.99-.023 3.856 1.239 4.95 5.06 4.244 9.899-1.83 18.804.767 26.696 6.892 2.839 2.203 5.529 4.598 8.383 6.986 8.861-10.344 19.716-15.992 33.17-14.197 5.19.693 5.575-1.098 5.533-5.1-.153-14.66-.16-29.323-.182-43.984-.003-1.383-.723-3.028 1.27-4.172 2.65 1.78 5.175 4.138 8.165 5.311 3.552 1.395 4.079 3.637 4.069 6.939-.061 20.162.028 40.324.073 60.486.002.835.09 1.682-1.326 2.06-6.817-7.315-15.743-9.337-25.404-8.17-10.902 1.318-23.17 10.391-19.402 24.843 7.523-7.719 15.085-15.141 26.336-16.805.521 9.13-2.237 16.328-9.75 21.779-5.37 3.896-10.154 8.608-15.121 13.044-1.282 1.144-3.06 2.295-1.926 4.553 35.548-2.322 63.731-30.71 64.578-68.252.807-35.823-26.139-68.971-69.288-70.773-33.327-1.392-67.054 23.22-71.548 61.387-4.359 37.016 20.346 69.788 56.592 76.868z" style="stroke-width:0" transform="matrix(2.90776 0 0 2.93487 -516.332 -302.995)"/><path d="M279.754 188.467c5.584-2.681 11.14-3.065 16.83-2.802 2.235.104 3.477.961 3.346 3.264-.113 1.998-.125 4.24-3.066 4.075-9.885-.553-18.585 2.25-25.928 9.831-1.984-4.156-1.969-7.137 1.367-9.697 2.24-1.718 4.46-3.433 7.451-4.671zM253.81 161.14c-5.629-3.361-11.465-4.246-17.523-4.028-2.679.097-4.465-.472-4.558-3.701-.096-3.303 1.727-3.703 4.385-3.787 8.601-.274 16.318 1.9 23.122 7.356 2.85 2.284 3.864 4.765 2.453 8.373-3.388.264-4.952-2.926-7.88-4.214zm4.912 31.223c4.14 3.983 4.188 4.156 2.716 9.31-.448-.023-1.097.148-1.367-.098-7.257-6.596-15.777-9.493-25.535-8.872-2.474.158-2.528-1.625-2.548-3.34-.028-2.373 1.01-3.49 3.56-3.715 8.49-.75 16.1 1.314 23.174 6.715zm16.1-29.653c-1.62.798-2.426 2.354-4.483 2.276-1.31-3.343-.87-5.94 2.295-8.389 6.782-5.245 14.356-7.333 22.813-6.955 2.678.12 3.896 1.032 3.889 3.836-.008 2.802-1.146 3.954-3.9 3.694-7.42-.701-14.114 1.397-20.614 5.539zm-21.292 2.543c2.086 1.44 3.884 2.639 5.607 3.938 3.59 2.706 3.62 2.872 2.261 9.299-8.434-7.451-17.878-11.16-28.69-9.718-1.853-6.245-1.308-6.894 4.637-7.14 5.622-.234 10.89.823 16.185 3.621zm16.693 11.577c-1.513-3.887-.242-6.322 2.898-8.614 7.605-5.555 15.528-7.624 25.829-6.05.837 2.04.662 4.125.018 6.788-10.746-1.92-19.693 2.863-28.745 7.877zm18.992-3.126c3.402-.025 6.361-.025 9.352-.025 1.145 2.35 1.436 4.5.201 6.952-5.129-.603-10.157.095-15.072 1.615-4.755 1.472-8.646 4.632-13.167 7.353-1.575-3.9-1.098-6.514 2.022-8.982 4.828-3.82 10.19-6.065 16.664-6.913zm-39.176 1.9c3.52 1.305 6.119 3.376 8.885 5.198 3.249 2.14 4.281 4.812 2.325 9.575-8.183-7.51-17.643-10.984-28.388-9.683-1.892-5.869-1.244-6.86 4.132-7.043 4.343-.148 8.596.178 13.046 1.953z" style="stroke-width:0" transform="matrix(2.90776 0 0 2.93487 -516.332 -302.995)"/></g></svg>