<?xml version="1.0" encoding="UTF-8"?>
<svg id="Layer_1" xmlns="http://www.w3.org/2000/svg" viewBox="0 0 772.24 424.24">
  <defs>
    <style>
      .cls-1 {
        fill: #3b97d3;
      }

      .cls-2, .cls-3 {
        fill: #fff;
      }

      .cls-4 {
        fill: #262727;
      }

      .cls-3 {
        stroke: #fff;
        stroke-miterlimit: 10;
      }
    </style>
  </defs>
  <rect class="cls-4" y="276.25" width="772.24" height="147.99"/>
  <rect class="cls-1" width="772.24" height="276.25"/>
  <g>
    <path class="cls-2" d="M85.72,389.64c-6.23,0-11.65-1.43-16.28-4.3-4.62-2.86-8.2-6.91-10.72-12.12s-3.78-11.36-3.78-18.43v-.05c0-7.07,1.26-13.2,3.78-18.41,2.52-5.2,6.09-9.23,10.7-12.08,4.61-2.85,10.04-4.27,16.3-4.27,4.67,0,8.92.89,12.75,2.66,3.83,1.78,7.03,4.25,9.6,7.43,2.57,3.18,4.27,6.9,5.12,11.16l.09.47h-8.5l-.33-1.03c-.87-2.74-2.17-5.07-3.9-6.98-1.73-1.92-3.84-3.39-6.33-4.42-2.49-1.03-5.33-1.54-8.5-1.54-4.48,0-8.38,1.11-11.7,3.34s-5.89,5.36-7.71,9.39c-1.82,4.03-2.73,8.79-2.73,14.27v.05c0,5.45.91,10.21,2.73,14.27,1.82,4.06,4.4,7.22,7.73,9.46,3.33,2.24,7.22,3.36,11.68,3.36,3.15,0,5.96-.51,8.43-1.54,2.48-1.03,4.6-2.55,6.38-4.55,1.78-2.01,3.15-4.49,4.11-7.45l.14-.42h8.5l-.09.47c-.84,4.3-2.54,8.04-5.09,11.23s-5.75,5.66-9.58,7.4c-3.83,1.74-8.1,2.62-12.8,2.62Z"/>
    <path class="cls-2" d="M151.89,388.51v-67.41h41.76v7.57h-33.35v21.63h31.62v7.47h-31.62v23.17h33.35v7.57h-41.76Z"/>
    <path class="cls-2" d="M233.42,388.51v-67.41h25.27c4.33,0,8.11.83,11.33,2.5,3.22,1.67,5.72,4,7.5,7.01,1.78,3,2.66,6.53,2.66,10.58v.09c0,4.67-1.21,8.71-3.62,12.12-2.41,3.41-5.72,5.79-9.93,7.12l15.6,27.98h-9.86l-14.43-26.67h-16.12v26.67h-8.41ZM241.83,354.42h16.12c4.33,0,7.67-1.12,10.02-3.36s3.53-5.43,3.53-9.58v-.09c0-4.02-1.24-7.15-3.71-9.41s-5.88-3.39-10.21-3.39h-15.74v25.83Z"/>
    <path class="cls-2" d="M336.48,388.51v-59.84h-21.25v-7.57h50.92v7.57h-21.25v59.84h-8.41Z"/>
    <path class="cls-2" d="M403.72,388.51v-67.41h8.41v67.41h-8.41Z"/>
    <path class="cls-2" d="M453.91,388.51v-67.41h40.92v7.57h-32.51v23.17h29.85v7.47h-29.85v29.2h-8.41Z"/>
    <path class="cls-2" d="M533.11,388.51v-67.41h8.41v67.41h-8.41Z"/>
    <path class="cls-2" d="M583.29,388.51v-67.41h41.76v7.57h-33.35v21.63h31.62v7.47h-31.62v23.17h33.35v7.57h-41.76Z"/>
    <path class="cls-2" d="M664.82,388.51v-67.41h22.66c6.66,0,12.36,1.33,17.1,3.99,4.73,2.66,8.37,6.49,10.91,11.49,2.54,5,3.81,11.03,3.81,18.1v.09c0,7.07-1.26,13.13-3.78,18.17s-6.15,8.9-10.88,11.56c-4.73,2.66-10.45,3.99-17.14,3.99h-22.66ZM673.23,380.95h13.69c5.11,0,9.43-1.01,12.96-3.04,3.53-2.02,6.22-4.97,8.06-8.85,1.84-3.88,2.76-8.6,2.76-14.18v-.09c0-5.61-.92-10.35-2.76-14.25-1.84-3.89-4.52-6.84-8.06-8.85-3.54-2.01-7.86-3.01-12.96-3.01h-13.69v52.27Z"/>
  </g>
  <g>
    <path class="cls-2" d="M282.51,222.13l58.75-155.85h10.91v17.93h-3.78l-50.33,137.92h-15.55ZM308.11,174.28l4.86-12.64h71.07l4.86,12.64h-80.79ZM398.94,222.13l-50.22-137.92v-17.93h7.13l58.54,155.85h-15.45Z"/>
    <path class="cls-2" d="M444.83,222.13V66.28h54.97c10.15,0,18.96,1.87,26.41,5.62,7.45,3.74,13.21,9.02,17.28,15.82,4.07,6.8,6.1,14.85,6.1,24.14v.22c0,10.95-2.97,20.3-8.91,28.08s-14.09,13.03-24.46,15.77l37.8,66.21h-17.17l-35.86-63.94c-.43.07-.96.11-1.57.11h-39.91v63.83h-14.69ZM459.52,145.23h39.1c11.3,0,20.11-2.88,26.41-8.64,6.3-5.76,9.45-13.83,9.45-24.19v-.22c0-10.3-3.24-18.32-9.72-24.08-6.48-5.76-15.41-8.64-26.79-8.64h-38.45v65.78Z"/>
    <path class="cls-2" d="M651,224.62c-14.26,0-26.68-3.33-37.26-9.99-10.58-6.66-18.76-16-24.52-28.03-5.76-12.02-8.64-26.17-8.64-42.45v-.11c0-16.34,2.88-30.51,8.64-42.5,5.76-11.99,13.91-21.28,24.46-27.87,10.55-6.59,22.99-9.88,37.32-9.88,10.73,0,20.41,2.07,29.05,6.21,8.64,4.14,15.8,9.88,21.49,17.23,5.69,7.34,9.5,15.88,11.45,25.6l.22,1.08h-14.8l-.54-1.94c-2.02-7.06-5.15-13.16-9.4-18.31-4.25-5.15-9.52-9.14-15.82-11.99-6.3-2.84-13.52-4.27-21.66-4.27-11.23,0-21.01,2.74-29.32,8.21-8.32,5.47-14.74,13.2-19.28,23.17-4.54,9.97-6.8,21.73-6.8,35.26v.11c0,13.47,2.29,25.2,6.86,35.21,4.57,10.01,11.02,17.79,19.33,23.33,8.32,5.55,18.05,8.32,29.22,8.32,8.06,0,15.23-1.42,21.49-4.27,6.26-2.84,11.57-6.91,15.93-12.21,4.36-5.29,7.58-11.65,9.67-19.06l.32-.97h14.8l-.22,1.08c-1.94,9.79-5.76,18.36-11.45,25.71-5.69,7.34-12.84,13.07-21.44,17.17-8.61,4.1-18.31,6.16-29.11,6.16Z"/>
  </g>
  <path class="cls-2" d="M183.93,101.77c-.04.72-.19,1.98-.93,3.29-.55.97-1.34,1.78-2.31,2.32l-33.33,19.2c-.97.54-2.05-.21-2.05-1.29v-39.7c0-.54.32-.97.76-1.29,29.73-17.32,36.76-21.42,36.84-21.47.03-.02.06-.03.06-.03.02-.01.17-.09.27-.12.07-.02.25-.07.39.02.13.09.18.27.2.35,0,.01,0,.03,0,.04.24,20.81.25,36,.1,38.68Z"/>
  <path class="cls-2" d="M180.19,60.24l-34.95,20.39c-.21.1-.38.16-.48.19-1.69.52-3.2-.36-3.39-.47-.12-.08-.21-.14-.23-.15-1.52-1.06-33.29-19-35.04-21.06-.36-.42-.34-.83-.34-.83.02-.53.53-.95.97-1.21,11.14-6.32,22.29-12.65,33.44-18.97.97-.54,2.05-.86,3.24-.86,1.08,0,2.26.32,3.13.86l33.54,19.52c.07.04.15.07.22.11.97.54.86,1.94-.11,2.48Z"/>
  <path class="cls-2" d="M85.45,140.5c-11.99,11.76-29.53,14.06-36.52,14.51v36.37c6.95,22.42,31.2,33.71,36.52,35.95,5.32-2.24,29.58-13.53,36.52-35.97v-36.35c-7-.45-24.52-2.75-36.52-14.51ZM103.99,174.32l-24.75,21.46c-.57.5-1.26.74-1.96.74-.79,0-1.57-.32-2.15-.92l-9.87-10.18c-1.14-1.2-1.11-3.08.07-4.23,1.18-1.14,3.08-1.11,4.23.07l7.89,8.16,22.62-19.61c1.24-1.09,3.14-.94,4.22.3,1.07,1.24.94,3.13-.3,4.21Z"/>
  <path class="cls-3" d="M235.74,144.2c-5.14-5.14-11.97-7.97-19.24-7.97s-14.11,2.83-19.25,7.97c-8.77,8.76-10.48,22.35-4.18,33.04.33.56.24,1.28-.22,1.74-22.81,22.89-39,39.1-39.52,39.52-.05.04-.35.27-.37.6-.01.3.22.54.3.62,2.24,2.31,4.59,4.49,6.81,6.82.09.09.34.37.7.38.29,0,.51-.16.63-.26.5-.42,2.2-2.11,4.45-4.46.09-.09.22-.2.41-.29.19-.09.4-.13.61-.13.38,0,.74.15,1.01.42,3.34,3.37,5.8,5.82,6.13,6.13.08.07.25.23.47.22.21,0,.37-.16.41-.2,8.35-7.93,9.35-9.07,11.36-11.35.04-.05.19-.21.18-.41-.01-.21-.19-.35-.23-.39-.32-.28-2.76-2.72-6.16-6.15-.11-.12-.42-.5-.42-1.02,0-.38.15-.74.42-1.01l20.92-20.92c.46-.47,1.18-.56,1.75-.22,4.3,2.54,9.08,3.77,13.82,3.77,7.03,0,13.98-2.72,19.22-7.95,5.14-5.14,7.97-11.98,7.97-19.25s-2.83-14.1-7.97-19.24ZM227.64,174.58c-6.15,6.14-16.14,6.14-22.29,0-6.14-6.14-6.14-16.14,0-22.28,3.08-3.07,7.11-4.61,11.14-4.61s8.08,1.54,11.15,4.61c6.14,6.14,6.14,16.14,0,22.28Z"/>
  <path class="cls-2" d="M103.35,101.77c.04.72.19,1.98.93,3.29.55.97,1.34,1.78,2.31,2.32l33.33,19.2c.97.54,2.05-.21,2.05-1.29v-39.7c0-.54-.32-.97-.76-1.29-29.73-17.32-36.76-21.42-36.84-21.47-.03-.02-.06-.03-.06-.03-.02-.01-.17-.09-.27-.12-.07-.02-.25-.07-.39.02-.13.09-.18.27-.2.35,0,.01,0,.03,0,.04-.24,20.81-.25,36-.1,38.68Z"/>
</svg>