<?xml version="1.0" encoding="UTF-8"?>
<svg id="Layer_1" xmlns="http://www.w3.org/2000/svg" viewBox="0 0 1272.44 213.89">
  <defs>
    <style>
      .cls-1 {
        fill: #3b97d3;
      }

      .cls-2 {
        fill: #fff;
      }

      .cls-3 {
        fill: #262727;
      }
    </style>
  </defs>
  <rect class="cls-3" x="346.15" y=".24" width="926.29" height="213.77" rx="67.04" ry="67.04"/>
  <path class="cls-1" d="M67.04.24h382.7v213.77H67.04C30.04,214.01,0,183.97,0,146.97v-79.7C0,30.27,30.04.24,67.04.24Z"/>
  <g>
    <path class="cls-2" d="M591.8,147.7c-7.7,0-14.38-1.72-20.06-5.15-5.68-3.43-10.07-8.31-13.16-14.63-3.09-6.32-4.64-13.8-4.64-22.44v-.06c0-8.64,1.55-16.11,4.64-22.41,3.09-6.3,7.47-11.16,13.13-14.57,5.66-3.42,12.36-5.12,20.09-5.12,6,0,11.41,1.15,16.24,3.45,4.83,2.3,8.81,5.49,11.94,9.56,3.13,4.08,5.11,8.81,5.94,14.21l.06.57h-12.62l-.34-1.13c-.87-3.21-2.27-5.96-4.22-8.26-1.94-2.3-4.34-4.07-7.19-5.29-2.85-1.23-6.12-1.84-9.82-1.84-5.06,0-9.44,1.26-13.16,3.79-3.72,2.53-6.59,6.09-8.63,10.7-2.04,4.6-3.06,10.06-3.06,16.36v.06c0,6.26,1.02,11.73,3.06,16.38,2.04,4.66,4.92,8.25,8.66,10.78,3.74,2.53,8.11,3.79,13.13,3.79,3.62,0,6.86-.61,9.71-1.84,2.85-1.23,5.27-3.03,7.27-5.41s3.49-5.28,4.47-8.72l.17-.57h12.62l-.11.57c-.83,5.43-2.8,10.2-5.91,14.29-3.11,4.09-7.08,7.27-11.91,9.54-4.83,2.26-10.26,3.4-16.3,3.4Z"/>
    <path class="cls-2" d="M643.32,146.34v-81.67h51.84v10.98h-39.16v23.77h37.07v10.64h-37.07v25.3h39.16v10.98h-51.84Z"/>
    <path class="cls-2" d="M714.03,146.34v-81.67h31.75c5.55,0,10.36,1.02,14.43,3.06,4.08,2.04,7.22,4.92,9.42,8.66,2.21,3.74,3.31,8.17,3.31,13.3v.11c0,5.55-1.41,10.4-4.22,14.54-2.81,4.15-6.67,7.06-11.57,8.72l18.28,33.28h-14.66l-16.64-31.3h-17.43v31.3h-12.68ZM726.71,104.57h17.83c4.87,0,8.64-1.27,11.32-3.82,2.68-2.55,4.02-6.16,4.02-10.84v-.11c0-4.49-1.41-8.03-4.22-10.61-2.81-2.58-6.65-3.88-11.52-3.88h-17.43v29.26Z"/>
    <path class="cls-2" d="M811.23,146.34v-70.69h-24.96v-10.98h62.65v10.98h-24.96v70.69h-12.73Z"/>
    <path class="cls-2" d="M865.02,146.34v-81.67h12.68v81.67h-12.68Z"/>
    <path class="cls-2" d="M898.55,146.34v-81.67h50.99v10.98h-38.32v25.81h35.09v10.7h-35.09v34.18h-12.68Z"/>
    <path class="cls-2" d="M966.37,146.34v-81.67h12.68v81.67h-12.68Z"/>
    <path class="cls-2" d="M999.9,146.34v-81.67h51.84v10.98h-39.16v23.77h37.07v10.64h-37.07v25.3h39.16v10.98h-51.84Z"/>
    <path class="cls-2" d="M1070.61,146.34v-81.67h28.81c8.11,0,15.04,1.59,20.8,4.78s10.17,7.8,13.24,13.84,4.61,13.36,4.61,21.96v.11c0,8.6-1.53,15.97-4.58,22.1-3.06,6.13-7.46,10.81-13.21,14.04s-12.71,4.84-20.86,4.84h-28.81ZM1083.28,135.36h14.94c5.77,0,10.66-1.15,14.66-3.45,4-2.3,7.04-5.68,9.11-10.13,2.07-4.45,3.11-9.88,3.11-16.3v-.11c0-6.38-1.05-11.78-3.14-16.21s-5.13-7.79-9.11-10.07c-3.98-2.28-8.86-3.42-14.63-3.42h-14.94v59.71Z"/>
  </g>
  <g>
    <path class="cls-2" d="M116.39,146.06l29.71-81.67h10.3v13.53h-3.57l-23.09,68.14h-13.36ZM130.82,123.99l3.68-10.19h36.9l3.68,10.19h-44.26ZM176.15,146.06l-23.03-68.14v-13.53h6.73l29.66,81.67h-13.36Z"/>
    <path class="cls-2" d="M204.3,146.06v-81.67h31.75c5.55,0,10.36,1.02,14.43,3.06,4.08,2.04,7.22,4.92,9.42,8.66,2.21,3.74,3.31,8.17,3.31,13.3v.11c0,5.55-1.41,10.4-4.22,14.54-2.81,4.15-6.67,7.06-11.57,8.72l18.28,33.28h-14.66l-16.64-31.3h-17.43v31.3h-12.68ZM216.98,104.3h17.83c4.87,0,8.64-1.27,11.32-3.82,2.68-2.55,4.02-6.16,4.02-10.84v-.11c0-4.49-1.41-8.03-4.22-10.61-2.81-2.58-6.65-3.88-11.52-3.88h-17.43v29.26Z"/>
    <path class="cls-2" d="M316.21,147.42c-7.7,0-14.38-1.72-20.06-5.15-5.68-3.43-10.07-8.31-13.16-14.63-3.09-6.32-4.64-13.8-4.64-22.44v-.06c0-8.64,1.55-16.11,4.64-22.41,3.09-6.3,7.47-11.16,13.13-14.57,5.66-3.42,12.36-5.12,20.09-5.12,6,0,11.41,1.15,16.24,3.45,4.83,2.3,8.81,5.49,11.94,9.56,3.13,4.08,5.11,8.81,5.94,14.21l.06.57h-12.62l-.34-1.13c-.87-3.21-2.27-5.96-4.22-8.26-1.94-2.3-4.34-4.07-7.19-5.29-2.85-1.23-6.12-1.84-9.82-1.84-5.06,0-9.44,1.26-13.16,3.79-3.72,2.53-6.59,6.09-8.63,10.7-2.04,4.6-3.06,10.06-3.06,16.36v.06c0,6.26,1.02,11.73,3.06,16.38,2.04,4.66,4.92,8.25,8.66,10.78,3.74,2.53,8.11,3.79,13.13,3.79,3.62,0,6.86-.61,9.71-1.84,2.85-1.23,5.27-3.03,7.27-5.41s3.49-5.28,4.47-8.72l.17-.57h12.62l-.11.57c-.83,5.43-2.8,10.2-5.91,14.29-3.11,4.09-7.08,7.27-11.91,9.54-4.83,2.26-10.26,3.4-16.3,3.4Z"/>
  </g>
</svg>